<?xml version="1.0" standalone="no"?>
<!DOCTYPE svg PUBLIC "-//W3C//DTD SVG 20010904//EN"
 "http://www.w3.org/TR/2001/REC-SVG-20010904/DTD/svg10.dtd">
<svg version="1.0" xmlns="http://www.w3.org/2000/svg"
 width="300.000000pt" height="300.000000pt" viewBox="0 0 300.000000 300.000000"
 preserveAspectRatio="xMidYMid meet">
<metadata>
Created by potrace 1.10, written by Peter Selinger 2001-2011
</metadata>
<g transform="translate(0.000000,300.000000) scale(0.100000,-0.100000)"
fill="#ffffff" stroke="none">
<path d="M762 2974 c-44 -41 -177 -382 -168 -432 6 -41 28 -76 59 -96 33 -22
370 -126 407 -126 48 0 90 47 90 100 0 60 -34 90 -137 120 -46 14 -83 28 -83
32 0 8 129 61 214 87 336 103 730 48 1028 -144 93 -60 115 -78 216 -178 234
-230 362 -541 362 -876 0 -343 -128 -651 -370 -892 -238 -237 -538 -359 -880
-359 -265 0 -479 64 -694 207 -231 154 -407 385 -496 651 -95 283 -77 634 46
901 43 93 44 133 5 172 -23 22 -39 29 -70 29 -57 0 -85 -29 -132 -140 -83
-192 -127 -440 -115 -643 22 -372 167 -698 426 -957 206 -206 453 -339 743
-402 147 -31 427 -31 574 0 292 63 537 196 743 402 549 550 573 1421 55 2001
-214 240 -514 407 -836 465 -128 23 -362 23 -494 0 -55 -10 -152 -35 -215 -57
-63 -22 -123 -42 -132 -45 -15 -5 -15 -1 3 46 16 43 18 58 9 85 -15 44 -41 66
-88 72 -33 4 -44 1 -70 -23z"/>
<path d="M1282 2045 c-60 -26 -64 -48 -60 -399 3 -300 4 -313 26 -361 27 -60
82 -118 137 -148 37 -21 56 -22 287 -25 l246 -3 33 29 c28 25 34 37 34 72 0
35 -6 47 -33 71 l-32 29 -216 0 -216 0 -29 29 -29 29 0 301 c0 170 -4 311 -10
325 -10 27 -64 66 -90 66 -8 -1 -30 -7 -48 -15z"/>
</g>
</svg>
