<?xml version="1.0" standalone="no"?>
<!DOCTYPE svg PUBLIC "-//W3C//DTD SVG 20010904//EN"
 "http://www.w3.org/TR/2001/REC-SVG-20010904/DTD/svg10.dtd">
<svg version="1.0" xmlns="http://www.w3.org/2000/svg"
 width="300.000000pt" height="300.000000pt" viewBox="0 0 300.000000 300.000000"
 preserveAspectRatio="xMidYMid meet">
<metadata>
Created by potrace 1.10, written by Peter Selinger 2001-2011
</metadata>
<g transform="translate(0.000000,300.000000) scale(0.100000,-0.100000)"
fill="#ffffff" stroke="none">
<path d="M2398 2795 c-128 -48 -208 -162 -208 -296 0 -119 68 -227 175 -279
71 -36 198 -36 269 -1 63 31 116 84 147 147 35 70 35 198 0 268 -31 63 -84
116 -147 147 -60 29 -178 36 -236 14z m188 -209 c30 -30 34 -40 34 -86 0 -46
-4 -56 -34 -86 -30 -30 -40 -34 -86 -34 -46 0 -56 4 -86 34 -30 30 -34 40 -34
86 0 46 4 56 34 86 30 30 40 34 86 34 46 0 56 -4 86 -34z"/>
<path d="M1015 2709 c-261 -19 -409 -79 -540 -220 -100 -109 -150 -224 -176
-409 -20 -135 -20 -1026 0 -1160 28 -200 78 -307 196 -425 118 -118 225 -168
425 -196 135 -20 1025 -20 1160 0 196 28 306 78 421 191 116 114 166 217 196
399 21 132 32 976 13 1022 -13 30 -54 59 -85 59 -30 0 -72 -29 -83 -57 -7 -18
-13 -189 -15 -488 -5 -508 -11 -568 -67 -681 -39 -80 -124 -165 -204 -204
-121 -60 -173 -64 -756 -64 -583 0 -635 4 -756 64 -80 39 -165 124 -204 204
-60 121 -64 173 -64 756 0 583 4 635 64 756 39 80 124 165 204 204 113 56 173
62 681 67 299 2 470 8 488 15 28 11 57 53 57 82 0 29 -24 68 -51 82 -23 11
-97 14 -411 13 -211 -1 -433 -5 -493 -10z"/>
<path d="M2072 1934 c-13 -9 -66 -106 -126 -229 -88 -180 -109 -217 -138 -235
-54 -33 -92 -35 -145 -9 -39 20 -54 35 -79 83 -42 79 -97 133 -169 167 -50 24
-73 29 -140 29 -67 0 -90 -5 -140 -29 -97 -46 -134 -95 -252 -339 -89 -183
-104 -220 -98 -248 11 -63 91 -95 143 -58 13 9 66 106 126 229 88 180 109 217
138 235 54 33 92 35 145 9 39 -20 54 -35 79 -83 42 -79 97 -133 169 -167 50
-24 73 -29 140 -29 67 0 90 5 140 29 97 46 134 95 252 339 89 183 104 220 98
248 -11 63 -91 95 -143 58z"/>
</g>
</svg>
