<?xml version="1.0" standalone="no"?>
<!DOCTYPE svg PUBLIC "-//W3C//DTD SVG 20010904//EN"
 "http://www.w3.org/TR/2001/REC-SVG-20010904/DTD/svg10.dtd">
<svg version="1.0" xmlns="http://www.w3.org/2000/svg"
 width="300.000000pt" height="300.000000pt" viewBox="0 0 300.000000 300.000000"
 preserveAspectRatio="xMidYMid meet">
<metadata>
Created by potrace 1.10, written by Peter Selinger 2001-2011
</metadata>
<g transform="translate(0.000000,300.000000) scale(0.100000,-0.100000)"
fill="#ffffff" stroke="none">
<path d="M1442 2983 c-47 -23 -64 -63 -70 -164 l-5 -87 -36 -7 c-61 -11 -176
-74 -240 -131 l-60 -55 -69 40 c-54 33 -78 41 -116 41 -41 0 -53 -5 -82 -34
-30 -30 -34 -41 -34 -84 0 -63 21 -90 107 -138 l65 -37 -8 -41 c-11 -53 -11
-269 0 -322 l8 -41 -65 -37 c-86 -48 -107 -75 -107 -138 0 -43 4 -54 34 -84
50 -50 105 -48 199 6 l69 40 53 -49 c67 -60 131 -98 215 -127 l65 -21 7 -85
c7 -101 25 -139 72 -162 43 -20 69 -20 112 0 47 23 65 61 72 162 l7 85 65 21
c84 29 148 67 215 127 l53 49 69 -40 c94 -54 149 -56 199 -6 30 30 34 41 34
84 0 63 -21 90 -107 138 l-65 37 8 41 c11 53 11 269 0 322 l-8 41 65 37 c86
48 107 75 107 138 0 43 -4 54 -34 84 -29 29 -41 34 -82 34 -38 0 -62 -8 -116
-41 l-69 -40 -60 55 c-64 57 -179 120 -240 131 l-37 7 -4 86 c-5 102 -23 142
-72 166 -43 20 -72 20 -114 -1z m159 -499 c105 -31 184 -96 236 -197 25 -47
28 -62 28 -157 0 -99 -2 -109 -33 -172 -65 -132 -180 -202 -332 -202 -148 0
-261 67 -331 196 -33 61 -34 67 -34 173 0 100 2 115 27 161 35 67 70 108 126
146 92 63 208 83 313 52z"/>
<path d="M1425 2296 c-56 -24 -115 -112 -115 -171 0 -32 25 -90 53 -122 75
-85 199 -85 274 0 28 32 53 90 53 122 0 60 -60 148 -117 171 -41 17 -109 17
-148 0z"/>
<path d="M423 2341 c-98 -36 -158 -76 -239 -157 -93 -92 -145 -184 -169 -301
-21 -99 -21 -917 0 -1017 46 -218 227 -406 455 -473 45 -13 129 -16 478 -20
l422 -5 0 -59 0 -59 -195 0 c-218 0 -253 -7 -279 -59 -34 -65 -12 -146 48
-175 30 -14 94 -16 556 -16 462 0 526 2 556 16 60 29 82 110 48 175 -26 52
-61 59 -279 59 l-195 0 0 59 0 59 423 5 c467 5 468 5 607 73 55 27 96 58 151
113 84 84 126 151 161 256 23 70 23 73 23 560 0 487 0 490 -23 560 -35 105
-77 172 -161 256 -132 133 -309 199 -383 144 -74 -55 -63 -176 20 -211 151
-64 190 -92 240 -172 60 -94 62 -113 62 -578 0 -394 -1 -426 -20 -485 -36
-114 -115 -197 -226 -239 -54 -20 -74 -20 -1004 -20 -930 0 -950 0 -1004 20
-111 42 -190 125 -226 239 -19 59 -20 91 -20 485 0 465 2 484 62 578 50 79
111 123 237 169 41 15 71 62 71 111 0 103 -85 150 -197 109z"/>
</g>
</svg>
