<?xml version="1.0" standalone="no"?>
<!DOCTYPE svg PUBLIC "-//W3C//DTD SVG 20010904//EN"
 "http://www.w3.org/TR/2001/REC-SVG-20010904/DTD/svg10.dtd">
<svg version="1.0" xmlns="http://www.w3.org/2000/svg"
 width="300.000000pt" height="300.000000pt" viewBox="0 0 300.000000 300.000000"
 preserveAspectRatio="xMidYMid meet">
<metadata>
Created by potrace 1.10, written by Peter Selinger 2001-2011
</metadata>
<g transform="translate(0.000000,300.000000) scale(0.100000,-0.100000)"
fill="#ffffff" stroke="none">
<path d="M689 2706 c-59 -16 -140 -68 -173 -110 -14 -19 -73 -128 -131 -245
l-106 -211 3 -797 3 -798 26 -56 c37 -79 90 -133 167 -171 l67 -33 955 0 955
0 56 26 c79 37 133 90 171 167 l33 67 3 797 3 798 -108 216 c-120 240 -151
282 -248 330 l-60 29 -785 2 c-605 1 -796 -1 -831 -11z m1595 -190 c18 -8 45
-29 59 -47 21 -28 127 -233 127 -245 0 -2 -436 -4 -970 -4 -533 0 -970 2 -970
4 0 12 106 217 127 245 48 63 15 60 841 61 622 0 758 -2 786 -14z m246 -1207
c0 -716 0 -722 -21 -759 -12 -21 -38 -47 -59 -59 -38 -21 -39 -21 -950 -21
-911 0 -912 0 -950 21 -21 12 -47 38 -59 59 -21 37 -21 43 -21 759 l0 721
1030 0 1030 0 0 -721z"/>
<path d="M1143 958 c-29 -14 -55 -70 -47 -103 3 -14 20 -36 36 -50 l30 -25
339 0 339 0 32 29 c45 40 45 92 0 132 l-32 29 -338 -1 c-216 0 -345 -4 -359
-11z"/>
</g>
</svg>
