<?xml version="1.0" standalone="no"?>
<!DOCTYPE svg PUBLIC "-//W3C//DTD SVG 20010904//EN"
 "http://www.w3.org/TR/2001/REC-SVG-20010904/DTD/svg10.dtd">
<svg version="1.0" xmlns="http://www.w3.org/2000/svg"
 width="300.000000pt" height="300.000000pt" viewBox="0 0 300.000000 300.000000"
 preserveAspectRatio="xMidYMid meet">
<metadata>
Created by potrace 1.10, written by Peter Selinger 2001-2011
</metadata>
<g transform="translate(0.000000,300.000000) scale(0.100000,-0.100000)"
fill="#fcfcfc" stroke="none">
<path d="M313 2730 c-68 -41 -64 32 -61 -1137 l3 -1058 28 -60 c37 -79 114
-156 191 -192 l61 -28 1058 -3 c1169 -3 1096 -7 1137 61 25 41 25 83 0 124
-40 67 28 63 -1107 63 -1002 0 -1029 1 -1060 20 -67 40 -63 -28 -63 1107 0
1002 -1 1029 -20 1060 -37 61 -108 79 -167 43z"/>
<path d="M1122 2104 c-19 -13 -374 -413 -465 -522 -21 -27 -27 -44 -27 -84 0
-44 4 -54 34 -84 29 -29 41 -34 83 -34 27 0 58 7 69 14 12 8 105 112 209 230
172 198 189 214 209 204 11 -6 193 -109 403 -230 335 -191 388 -218 426 -218
23 0 53 7 65 16 19 13 374 413 465 522 21 27 27 44 27 84 0 44 -4 54 -34 84
-29 29 -41 34 -83 34 -27 0 -58 -7 -69 -14 -12 -8 -105 -112 -209 -230 -172
-198 -189 -214 -209 -204 -11 6 -193 109 -403 230 -335 191 -388 218 -426 218
-23 0 -53 -7 -65 -16z"/>
</g>
</svg>
