 <svg  version="1.0" xmlns="http://www.w3.org/2000/svg"  width="900.000000pt" height="900.000000pt" viewBox="0 0 900.000000 900.000000"  preserveAspectRatio="xMidYMid meet">  <g transform="translate(0.000000,900.000000) scale(0.100000,-0.100000)" fill="#ffffff" stroke="none"> <path d="M3840 8233 c-86 -32 -143 -68 -191 -122 -49 -54 -58 -71 -102 -202 -27 -79 -54 -160 -62 -179 -7 -19 -29 -84 -49 -145 -19 -60 -40 -123 -46 -140 -6 -16 -19 -57 -29 -90 -11 -35 -26 -61 -35 -63 -8 -2 -175 76 -370 173 l-354 177 -94 0 c-166 0 -153 10 -665 -502 -306 -306 -448 -455 -467 -490 -36 -66 -50 -155 -37 -236 8 -51 43 -131 186 -415 96 -194 172 -355 168 -359 -4 -3 -174 -61 -378 -129 -314 -104 -378 -129 -422 -162 -63 -47 -108 -110 -134 -187 -19 -55 -19 -87 -17 -692 l3 -635 32 -66 c23 -46 50 -83 92 -120 54 -49 71 -58 202 -102 79 -27 160 -54 179 -62 19 -7 85 -29 145 -49 61 -19 124 -40 140 -46 17 -6 57 -19 90 -29 36 -12 61 -26 63 -35 2 -9 -76 -176 -173 -370 l-177 -355 0 -93 c0 -166 -10 -153 502 -665 307 -307 455 -448 490 -467 28 -15 79 -32 113 -37 120 -19 152 -8 539 186 193 96 353 173 356 171 2 -3 60 -172 129 -377 105 -313 131 -380 164 -425 46 -63 109 -108 186 -135 53 -18 89 -19 678 -19 688 0 667 -2 770 66 51 33 110 104 134 159 7 17 30 82 52 146 21 64 42 127 47 140 6 13 24 69 41 124 18 55 38 116 46 135 7 19 23 68 35 108 16 50 27 72 39 72 9 0 171 -77 361 -172 l345 -173 101 -3 c97 -4 104 -2 168 29 61 30 110 76 505 470 309 309 445 452 465 488 15 28 32 80 37 114 19 120 8 152 -186 539 -96 193 -173 353 -170 356 2 2 171 60 376 129 314 105 379 130 424 163 64 48 110 110 136 188 19 55 19 87 17 692 l-3 635 -32 66 c-23 47 -50 83 -93 122 -56 50 -71 58 -213 105 -83 28 -165 56 -182 62 -80 28 -273 92 -300 100 -16 4 -46 14 -65 21 -19 6 -41 13 -47 15 -7 2 -13 11 -13 20 0 9 79 175 175 368 l176 353 0 95 c0 168 11 153 -499 664 -471 471 -490 487 -605 505 -120 19 -151 8 -538 -186 -194 -96 -354 -173 -357 -171 -4 4 -232 674 -249 731 -11 37 -82 124 -128 155 -25 17 -71 40 -102 51 -53 18 -87 19 -682 18 -344 0 -633 -3 -641 -6z m957 -788 c8 -22 18 -53 23 -70 4 -16 14 -46 21 -65 6 -19 17 -51 24 -70 7 -19 18 -51 24 -70 7 -19 17 -48 21 -65 80 -282 262 -471 537 -556 95 -30 300 -30 393 -1 81 25 297 123 400 182 36 21 166 80 175 80 15 0 405 -393 405 -409 0 -12 -38 -87 -124 -241 -65 -117 -126 -246 -144 -306 -24 -83 -24 -315 0 -398 26 -88 92 -214 145 -276 121 -142 216 -195 533 -299 118 -39 225 -76 238 -83 l22 -12 -2 -294 -3 -294 -40 -15 c-22 -8 -53 -18 -70 -23 -16 -4 -46 -14 -65 -21 -19 -6 -51 -17 -70 -24 -19 -7 -51 -18 -70 -24 -19 -7 -48 -17 -65 -21 -283 -80 -471 -261 -557 -538 -16 -53 -21 -93 -20 -197 0 -177 11 -214 159 -510 19 -38 38 -77 43 -85 35 -65 80 -162 80 -172 0 -17 -391 -408 -409 -408 -12 0 -87 38 -241 124 -117 65 -246 126 -306 144 -83 24 -315 24 -398 0 -88 -26 -214 -92 -276 -145 -141 -120 -195 -217 -298 -528 -39 -115 -76 -222 -83 -238 l-12 -27 -295 2 -294 3 -15 40 c-8 22 -18 54 -23 70 -4 17 -14 46 -21 65 -6 19 -17 51 -24 70 -7 19 -18 51 -24 70 -7 19 -17 49 -21 65 -80 283 -261 471 -538 557 -53 16 -93 21 -197 21 -175 0 -208 -10 -480 -145 -55 -27 -107 -53 -115 -58 -60 -33 -160 -80 -171 -80 -18 0 -409 391 -409 409 0 12 50 110 113 221 69 122 137 266 157 330 31 105 32 303 2 402 -53 171 -148 308 -282 410 -59 44 -182 102 -275 128 -16 4 -46 14 -65 21 -19 6 -51 17 -70 24 -19 7 -51 18 -70 24 -19 7 -48 17 -65 21 -16 5 -48 15 -70 23 l-40 15 0 292 0 292 40 15 c22 8 54 18 70 23 17 4 46 14 65 21 19 6 51 17 70 24 19 7 51 18 70 24 19 7 49 16 65 21 276 76 472 266 557 538 16 53 21 93 20 197 0 173 -15 221 -164 513 -65 127 -118 237 -118 244 0 15 379 396 401 403 10 3 114 -44 250 -113 295 -149 342 -164 514 -164 104 -1 144 4 197 20 273 85 462 280 538 557 5 17 13 44 19 60 26 70 63 182 70 210 5 17 13 41 19 55 6 14 13 33 16 43 5 16 26 17 297 15 l291 -3 15 -40z"/> <path d="M4250 5970 c-155 -29 -198 -41 -320 -90 -136 -55 -247 -118 -361 -206 -123 -94 -291 -284 -367 -414 -63 -107 -136 -282 -162 -385 -66 -266 -66 -504 0 -770 24 -98 99 -278 154 -370 117 -199 283 -373 479 -503 26 -18 50 -32 52 -32 2 0 26 -13 52 -28 76 -44 240 -110 328 -132 266 -66 504 -66 770 0 98 24 278 99 370 154 199 117 373 283 503 479 18 26 32 50 32 52 0 2 13 26 28 52 44 76 110 240 132 328 66 266 66 504 0 770 -22 88 -88 252 -132 328 -15 26 -28 50 -28 52 0 7 -61 97 -106 156 -93 121 -283 291 -414 367 -109 64 -279 136 -385 162 -213 53 -444 64 -625 30z m408 -751 c76 -18 132 -41 237 -96 39 -21 207 -189 228 -228 55 -105 78 -161 96 -237 46 -188 16 -367 -94 -568 -35 -63 -172 -200 -235 -235 -259 -142 -495 -152 -740 -32 -69 34 -103 59 -181 137 -53 52 -103 109 -112 125 -116 221 -142 381 -96 574 96 403 501 656 897 560z"/> </g> </svg> 