 <svg  version="1.0" xmlns="http://www.w3.org/2000/svg"  width="300.000000pt" height="300.000000pt" viewBox="0 0 300.000000 300.000000"  preserveAspectRatio="xMidYMid meet">  <g transform="translate(0.000000,300.000000) scale(0.100000,-0.100000)" fill="#ffffff" stroke="none"> <path d="M2595 2899 c-21 -11 -31 -23 -172 -217 -100 -137 -100 -149 0 -154 l62 -3 -1 -75 c-2 -117 -56 -211 -162 -280 -23 -15 -22 -16 69 -84 108 -80 104 -81 204 25 80 85 142 205 157 304 19 126 11 115 78 115 49 0 61 4 70 19 9 17 -8 44 -110 181 -74 99 -130 164 -146 170 -14 6 -26 10 -27 9 -1 0 -11 -5 -22 -10z"/> <path d="M1394 2657 c-12 -7 -207 -174 -433 -372 l-412 -360 113 -3 113 -3 408 203 407 203 0 124 c0 107 -3 128 -20 156 -35 56 -123 82 -176 52z"/> <path d="M1418 2133 l-413 -208 495 -3 c272 -1 501 0 508 3 11 4 13 38 10 163 -3 175 -10 195 -71 232 -68 42 -82 37 -529 -187z"/> <path d="M310 1818 c-70 -20 -130 -78 -155 -147 -13 -38 -15 -134 -15 -686 0 -719 -2 -701 71 -774 76 -76 9 -72 1190 -69 l1054 3 41 22 c51 27 98 80 115 130 9 25 13 93 14 198 l0 160 -275 5 c-304 6 -314 8 -364 73 -48 63 -59 111 -59 252 0 141 11 189 59 252 50 65 60 67 364 73 l275 5 -1 165 c-1 179 -7 206 -59 268 -15 18 -46 43 -69 55 l-41 22 -1055 2 c-681 1 -1067 -2 -1090 -9z"/> <path d="M2093 1205 c-57 -24 -68 -61 -68 -220 0 -115 3 -146 18 -172 33 -62 42 -63 395 -63 315 0 319 0 353 23 60 40 70 74 67 224 -3 115 -6 135 -24 160 -45 61 -58 63 -399 63 -242 -1 -317 -4 -342 -15z m287 -55 c62 -32 94 -81 98 -154 4 -73 -15 -115 -71 -160 -29 -23 -50 -31 -95 -34 -75 -5 -131 21 -169 80 -39 59 -40 147 -1 205 50 76 157 104 238 63z"/> <path d="M2246 1059 c-38 -30 -49 -64 -35 -106 21 -66 115 -82 159 -26 37 47 23 111 -30 138 -39 20 -62 19 -94 -6z"/> </g> </svg> 