 <svg  version="1.0" xmlns="http://www.w3.org/2000/svg"  width="300.000000pt" height="300.000000pt" viewBox="0 0 300.000000 300.000000"  preserveAspectRatio="xMidYMid meet">  <g transform="translate(0.000000,300.000000) scale(0.100000,-0.100000)" fill="#ffffff" stroke="none"> <path d="M1318 2980 c-290 -61 -523 -233 -666 -490 -76 -136 -103 -243 -108 -435 -5 -147 -3 -168 20 -257 32 -126 98 -268 123 -268 11 0 23 4 29 8 16 15 117 51 189 68 85 20 269 14 360 -10 83 -22 210 -86 280 -141 l58 -45 244 0 c218 0 250 -2 304 -20 l60 -21 20 23 c144 168 225 367 236 583 7 137 -8 241 -51 367 -80 234 -260 440 -481 550 -200 100 -415 131 -617 88z m227 -166 c27 -11 45 -60 45 -123 l0 -59 53 -30 c29 -16 69 -48 90 -71 47 -52 49 -90 8 -132 -41 -40 -80 -39 -128 5 -49 43 -75 56 -113 56 -45 0 -67 -15 -80 -54 -21 -64 25 -116 103 -116 18 0 55 -11 82 -24 200 -93 210 -362 18 -472 -32 -18 -33 -21 -33 -82 0 -57 -3 -67 -29 -93 -40 -39 -82 -39 -122 0 -26 27 -29 36 -29 94 l0 65 -42 22 c-72 37 -108 78 -108 122 0 48 35 88 77 88 16 0 53 -16 83 -35 60 -38 94 -43 128 -19 33 23 45 60 32 98 -13 40 -35 53 -110 65 -142 23 -230 123 -230 259 0 98 47 182 127 228 l43 26 0 60 c0 88 27 127 87 128 17 0 39 -3 48 -6z"/> <path d="M901 1424 c-29 -8 -84 -30 -122 -50 l-69 -36 0 -579 0 -580 718 3 c712 3 717 3 775 25 77 29 141 71 200 130 61 62 574 807 589 854 28 96 -44 205 -145 216 -57 7 -106 -10 -143 -48 -16 -17 -133 -159 -259 -317 -188 -234 -239 -291 -275 -309 -43 -22 -52 -23 -373 -23 l-329 0 -29 29 c-32 33 -36 58 -14 101 10 20 27 32 53 39 21 7 155 11 321 11 267 0 285 1 320 20 116 66 116 234 0 299 -34 20 -53 21 -285 21 -137 0 -263 4 -280 9 -17 5 -60 32 -95 60 -75 61 -160 104 -244 126 -75 19 -242 19 -314 -1z"/> <path d="M29 1381 l-29 -29 0 -647 0 -647 29 -29 c29 -29 30 -29 155 -29 101 0 136 4 179 20 62 23 117 76 146 140 20 43 21 64 21 545 l0 500 -24 50 c-29 60 -76 107 -136 134 -38 17 -66 21 -178 21 l-134 0 -29 -29z"/> </g> </svg> 