<?xml version="1.0" standalone="no"?>
<!DOCTYPE svg PUBLIC "-//W3C//DTD SVG 20010904//EN"
 "http://www.w3.org/TR/2001/REC-SVG-20010904/DTD/svg10.dtd">
<svg version="1.0" xmlns="http://www.w3.org/2000/svg"
 width="300.000000pt" height="300.000000pt" viewBox="0 0 300.000000 300.000000"
 preserveAspectRatio="xMidYMid meet">
<metadata>
Created by potrace 1.10, written by Peter Selinger 2001-2011
</metadata>
<g transform="translate(0.000000,300.000000) scale(0.100000,-0.100000)"
fill="#ffffff" stroke="none">
<path d="M2280 2818 c-51 -19 -108 -73 -738 -702 -477 -476 -689 -694 -703
-724 -28 -57 -66 -447 -50 -504 14 -44 69 -95 113 -103 19 -4 128 2 244 13
165 16 219 24 250 40 23 12 309 292 711 694 536 538 677 684 700 728 25 49 28
65 28 150 0 89 -2 99 -34 157 -48 90 -189 223 -265 252 -75 28 -180 28 -256
-1z m217 -189 c54 -33 141 -136 153 -179 18 -65 0 -105 -80 -185 l-70 -70
-152 153 -153 152 70 70 c39 39 84 75 100 80 39 12 92 3 132 -21z m-282 -419
l150 -150 -529 -529 -528 -528 -142 -12 c-77 -7 -153 -14 -168 -17 l-27 -5 6
53 c2 29 10 106 16 171 l12 118 525 524 c289 289 527 525 530 525 3 0 73 -68
155 -150z"/>
<path d="M495 2576 c-131 -42 -230 -127 -292 -253 l-38 -77 0 -871 0 -871 38
-78 c51 -101 122 -172 223 -223 l78 -38 871 0 871 0 77 38 c103 51 173 120
223 221 l39 80 3 443 3 443 -25 25 c-31 31 -92 34 -127 6 l-24 -19 -5 -419
c-5 -413 -5 -419 -29 -470 -29 -65 -91 -124 -157 -149 -47 -18 -86 -19 -849
-19 -763 0 -802 1 -849 19 -66 25 -128 84 -157 149 l-24 52 0 805 c0 768 1
807 19 854 25 66 84 128 149 157 51 24 57 24 470 29 l419 5 19 24 c28 34 25
96 -6 126 l-24 25 -428 -1 c-317 0 -438 -4 -468 -13z"/>
</g>
</svg>
