<?xml version="1.0" standalone="no"?>
<!DOCTYPE svg PUBLIC "-//W3C//DTD SVG 20010904//EN"
 "http://www.w3.org/TR/2001/REC-SVG-20010904/DTD/svg10.dtd">
<svg version="1.0" xmlns="http://www.w3.org/2000/svg"
 width="300.000000pt" height="300.000000pt" viewBox="0 0 300.000000 300.000000"
 preserveAspectRatio="xMidYMid meet">
<metadata>
Created by potrace 1.10, written by Peter Selinger 2001-2011
</metadata>
<g transform="translate(0.000000,300.000000) scale(0.100000,-0.100000)"
fill="#ffffff" stroke="none">
<path d="M950 2699 c-55 -22 -60 -40 -60 -217 l0 -164 29 -29 c49 -49 126 -35
156 28 13 28 16 62 13 183 -3 144 -4 151 -28 175 -29 29 -74 39 -110 24z"/>
<path d="M1975 2701 c-11 -5 -29 -19 -40 -31 -18 -20 -20 -39 -23 -171 -3
-120 0 -154 13 -182 30 -63 107 -77 156 -28 l29 29 0 164 c0 139 -3 166 -18
184 -32 40 -74 52 -117 35z"/>
<path d="M570 2473 c-62 -21 -144 -77 -180 -123 -17 -21 -43 -65 -58 -97 l-27
-58 0 -800 0 -800 23 -57 c34 -84 107 -160 200 -205 l76 -38 896 0 896 0 76
38 c93 45 166 121 200 205 l23 57 0 800 0 800 -32 67 c-58 123 -177 213 -299
225 l-54 6 0 -95 c0 -128 -18 -177 -90 -250 -45 -45 -69 -60 -115 -73 -167
-49 -333 41 -379 205 -9 31 -16 91 -16 133 l0 77 -209 0 -208 0 -6 -97 c-7
-117 -18 -156 -66 -219 -74 -97 -201 -136 -326 -100 -46 14 -70 29 -115 74
-72 73 -90 122 -90 249 l0 93 -37 0 c-21 -1 -58 -8 -83 -17z m1928 -1237 l-3
-614 -30 -43 c-16 -23 -48 -52 -70 -63 -40 -21 -47 -21 -895 -21 -848 0 -855
0 -895 21 -22 11 -53 40 -70 63 l-30 43 -3 614 -2 614 1000 0 1000 0 -2 -614z"/>
<path d="M1576 1293 l-158 -108 -22 30 c-66 92 -106 111 -166 80 -72 -37 -68
-90 18 -222 72 -112 104 -139 154 -129 35 7 434 279 448 306 13 24 13 76 0
101 -13 23 -61 49 -92 49 -13 0 -93 -47 -182 -107z"/>
</g>
</svg>
