 <svg  version="1.0" xmlns="http://www.w3.org/2000/svg"  width="900.000000pt" height="900.000000pt" viewBox="0 0 900.000000 900.000000"  preserveAspectRatio="xMidYMid meet">  <g transform="translate(0.000000,900.000000) scale(0.100000,-0.100000)" fill="#ffffff" stroke="none"> <path d="M3905 8240 c-178 -8 -364 -33 -525 -72 -25 -6 -61 -14 -80 -18 -49 -11 -219 -60 -280 -81 -203 -70 -441 -179 -620 -284 -374 -220 -711 -521 -997 -890 -32 -42 -183 -265 -183 -271 0 -2 -14 -27 -32 -56 -111 -187 -244 -489 -303 -688 -33 -114 -48 -168 -55 -200 -4 -19 -12 -55 -18 -80 -55 -228 -74 -414 -74 -725 0 -319 13 -443 78 -750 33 -154 116 -416 179 -560 26 -62 176 -361 195 -390 11 -16 23 -37 26 -45 35 -78 269 -389 407 -540 86 -95 260 -260 351 -332 11 -9 49 -39 82 -66 34 -27 108 -80 165 -117 57 -37 120 -78 139 -91 93 -61 331 -179 475 -237 197 -78 228 -88 425 -139 585 -152 1191 -145 1770 19 92 26 153 45 195 60 22 9 57 21 78 29 88 33 130 51 275 121 208 100 367 196 543 329 l96 73 710 -709 c661 -662 714 -711 776 -741 189 -88 409 -13 494 168 38 81 49 153 35 219 -28 134 -4 108 -776 875 l-715 711 43 57 c49 64 166 230 166 236 0 2 17 30 38 62 22 32 45 70 53 84 33 60 177 357 192 397 59 148 80 212 120 352 165 580 171 1183 19 1770 -51 197 -61 228 -139 425 -57 143 -200 430 -238 475 -6 8 -15 22 -19 30 -14 32 -129 200 -185 271 -25 31 -59 74 -76 95 -16 21 -37 45 -45 53 -9 9 -56 60 -104 114 -109 119 -275 269 -427 383 -108 81 -257 183 -289 197 -8 4 -28 16 -45 27 -29 19 -328 169 -390 195 -144 63 -406 146 -560 179 -331 71 -595 92 -950 76z m490 -765 c224 -26 474 -85 635 -149 197 -79 309 -133 445 -218 44 -27 89 -55 100 -61 43 -26 184 -134 250 -191 197 -173 357 -355 486 -556 119 -184 182 -308 265 -520 65 -167 119 -395 150 -633 18 -144 16 -471 -5 -612 -31 -207 -94 -461 -149 -595 -6 -14 -20 -50 -32 -80 -56 -141 -175 -357 -278 -504 -162 -233 -405 -476 -638 -638 -147 -103 -363 -222 -504 -278 -30 -12 -71 -28 -90 -36 -90 -36 -299 -94 -425 -118 -298 -57 -710 -57 -980 0 -169 36 -347 86 -435 122 -14 6 -50 20 -80 32 -71 28 -272 129 -330 165 -280 174 -459 325 -656 550 -56 65 -164 205 -191 250 -91 148 -146 245 -180 315 -37 76 -51 109 -99 230 -17 43 -66 204 -87 285 -102 394 -102 867 0 1260 79 305 183 545 351 805 193 298 464 569 762 762 260 168 500 272 805 351 275 71 627 95 910 62z"/> </g> </svg> 