 <svg  version="1.0" xmlns="http://www.w3.org/2000/svg"  width="300.000000pt" height="300.000000pt" viewBox="0 0 300.000000 300.000000"  preserveAspectRatio="xMidYMid meet">  <g transform="translate(0.000000,300.000000) scale(0.100000,-0.100000)" fill="#e6e6e6" stroke="none"> <path d="M213 2982 c-63 -22 -115 -61 -154 -115 -62 -86 -60 -22 -57 -1388 l3 -1244 28 -57 c32 -65 89 -121 156 -152 l46 -21 1265 0 1265 0 46 21 c67 31 124 87 156 152 l28 57 0 1265 0 1265 -21 46 c-31 67 -87 124 -152 156 l-57 28 -1250 2 c-1180 2 -1253 1 -1302 -15z m2550 -123 c32 -17 77 -60 93 -91 12 -23 14 -219 14 -1268 0 -1049 -2 -1245 -14 -1268 -16 -31 -61 -74 -93 -91 -16 -8 -365 -11 -1263 -11 -1049 0 -1245 2 -1268 14 -31 16 -74 61 -91 93 -8 16 -11 365 -11 1263 0 1049 2 1245 14 1268 15 29 59 73 91 90 29 16 2497 17 2528 1z"/> <path d="M925 2123 c-33 -8 -45 -24 -45 -58 0 -68 -28 -65 622 -65 554 0 586 1 601 18 22 24 22 76 0 93 -13 12 -119 14 -587 15 -314 1 -580 0 -591 -3z"/> <path d="M896 1544 c-20 -20 -20 -68 0 -88 14 -14 82 -16 604 -16 647 0 620 -3 620 60 0 63 27 60 -620 60 -522 0 -590 -2 -604 -16z"/> <path d="M897 982 c-22 -24 -22 -76 0 -93 13 -12 120 -14 603 -14 643 0 620 -2 620 60 0 68 28 65 -622 65 -554 0 -586 -1 -601 -18z"/> </g> </svg> 